<?xml version="1.0" encoding="iso-8859-1"?>
<!-- Uploaded to: SVG Repo, www.svgrepo.com, Generator: SVG Repo Mixer Tools -->
<svg height="800px" width="800px" version="1.1" id="Layer_1" xmlns="http://www.w3.org/2000/svg" xmlns:xlink="http://www.w3.org/1999/xlink" 
	 viewBox="0 0 512 512" xml:space="preserve">
<polygon style="fill:#FF877F;" points="140.8,499.2 140.8,396.8 484.719,396.8 416.452,499.2 "/>
<path style="fill:#FEDEA1;" d="M217.6,396.8V179.2c0-20.574,11.537-22.801,16.495-22.801c7.398,0,13.295,4.847,21.444,11.563
	c2.893,2.372,6.161,5.077,9.796,7.799l8.849,6.605l-0.29,0.538l12.39,4.873c7.228,2.842,14.063,4.224,20.915,4.224l12.8-4.975
	l4.872-3.84c3.78-2.987,7.305-6.187,10.428-9.011c8.183-7.39,13.585-12.271,20.932-12.271c5.171,0,14.967,3.618,14.967,17.297v217.6
	H217.6z"/>
<path style="fill:#FFB7B2;" d="M296.405,139.452c-5.914-2.961-35.61-18.901-39.433-42.496c-1.195-7.339-0.333-18.355,10.505-29.201
	c16.683-16.691,21.999-44.143,22.05-44.416l3.499-19.473l16.333,11.187c5.649,3.866,33.971,24.346,36.105,47.317
	c0.819,8.866-2.185,16.981-8.695,23.492c-21.137,21.137-21.837,41.429-21.854,42.291l-0.461,20.181L296.405,139.452z"/>
<g>
	<path style="fill:#573A32;" d="M290.679,150.895c3.618,1.809,7.535,2.705,11.452,2.705c4.685,0,9.353-1.28,13.457-3.823
		c7.543-4.668,12.143-12.902,12.143-21.777c0.026-0.068,1.015-16.009,18.099-33.101c9.156-9.156,13.551-21.137,12.382-33.732
		c-2.594-27.955-32.521-50.466-41.626-56.695C312.26,1.519,307.209,0,302.131,0c-3.345,0-6.707,0.657-9.882,1.988
		c-7.987,3.345-13.739,10.496-15.3,19.012c-1.263,6.63-7.031,26.214-18.517,37.7c-11.452,11.452-16.452,25.762-14.097,40.294
		C249.037,128.009,281.003,146.057,290.679,150.895z M276.531,76.8c19.994-19.994,25.6-51.2,25.6-51.2s45.594,31.206,25.6,51.2
		c-25.6,25.6-25.6,51.2-25.6,51.2S250.931,102.4,276.531,76.8z"/>
	<path style="fill:#573A32;" d="M483.371,397.517C478.916,389.197,470.238,384,460.8,384H384V179.2
		c0-19.763-13.969-30.097-27.767-30.097c-12.314,0-20.617,7.552-29.397,15.556c-4.565,4.156-15.266,13.892-19.891,14.558
		c-17.758-0.009-32.58-12.254-43.401-21.197c-8.969-7.407-17.442-14.413-29.44-14.413h-0.017c-11.827,0-22.298,7.347-26.667,18.714
		c-1.809,4.727-2.62,9.933-2.62,16.879V384h-78.618c-5.726-22.016-25.591-38.4-49.382-38.4c-28.228,0-51.2,22.972-51.2,51.2
		c0,28.228,22.972,51.2,51.2,51.2c23.782,0,43.657-16.384,49.382-38.4H128v76.8c0,14.14,11.46,25.6,25.6,25.6h256
		c8.559,0,16.555-4.275,21.299-11.4l51.2-76.8C487.339,415.949,487.825,405.845,483.371,397.517z M76.8,422.4
		c-14.14,0-25.6-11.46-25.6-25.6s11.46-25.6,25.6-25.6s25.6,11.46,25.6,25.6S90.94,422.4,76.8,422.4z M230.4,179.2
		c0-7.194,1.229-10.001,3.695-10.001c4.215,0,12.143,8.26,23.586,16.819C256.7,187.827,256,189.798,256,192v64
		c0,7.074,5.726,12.8,12.8,12.8c7.074,0,12.8-5.726,12.8-12.8v-56.303c7.689,3.021,16.179,5.103,25.6,5.103v89.6
		c0,7.074,5.726,12.8,12.8,12.8c7.074,0,12.8-5.726,12.8-12.8V193.237c10.769-8.499,19.567-18.534,23.433-18.534
		c1.399,0,2.167,1.314,2.167,4.497c0,34.833,0,140.638,0,204.8h-128C230.4,319.838,230.4,214.033,230.4,179.2z M409.6,486.4h-256
		v-76.8h307.2L409.6,486.4z"/>
</g>
</svg>